<?xml version="1.0" encoding="iso-8859-1"?>
<!-- Generator: Adobe Illustrator 18.1.1, SVG Export Plug-In . SVG Version: 6.00 Build 0)  -->
<svg version="1.1" id="Capa_1" xmlns="http://www.w3.org/2000/svg" xmlns:xlink="http://www.w3.org/1999/xlink" x="0px" y="0px"
	 viewBox="0 0 612.001 612.001" style="enable-background:new 0 0 612.001 612.001;" xml:space="preserve">
<g>
	<g>
		<g>
			<path d="M184.418,140.241c-2.786-10.205-12.043-17.286-22.623-17.286H23.451c-9.839,0-18.627,6.143-22.023,15.382
				c-3.377,9.229-0.638,19.603,6.856,25.962l109.146,92.451l-44.964,34.544c-5.356,4.117-8.676,10.345-9.117,17.089
				c-0.431,6.744,2.073,13.347,6.847,18.121l164.137,163.48c4.511,4.493,10.505,6.838,16.564,6.838c0.066,0,0.159,0,0.169,0
				c12.953,0,23.448-10.495,23.448-23.448c0-3.18-0.619-6.209-1.773-8.976L184.418,140.241z"/>
			<path d="M610.573,138.337c-3.386-9.239-12.184-15.382-22.023-15.382H450.207c-10.58,0-19.837,7.081-22.623,17.286l-89.102,326.96
				c-2.795,10.252,1.66,21.094,10.833,26.431c3.677,2.138,7.738,3.18,11.78,3.18c6.059,0,12.043-2.345,16.564-6.838l164.137-163.48
				c4.783-4.774,7.278-11.377,6.847-18.121c-0.441-6.744-3.752-12.972-9.117-17.089l-44.964-34.544l109.146-92.451
				C611.211,157.94,613.949,147.576,610.573,138.337z"/>
			<path d="M383.257,188.469c0-7.428-2.57-14.538-7.091-20.241c4.511-5.693,7.091-12.803,7.091-20.231
				c0-18.093-14.716-32.818-32.828-32.818c-6.819,0-16.808,5.037-29.742,14.969c-9.539-3.761-20.025-3.714-29.395-0.009
				c-12.934-9.933-22.914-14.951-29.732-14.951c-18.102,0-32.818,14.716-32.818,32.809c0,7.428,2.57,14.538,7.091,20.241
				c-4.511,5.693-7.091,12.812-7.091,20.231c0,18.093,14.716,32.818,32.818,32.818c6.809,0,16.798-5.027,29.742-14.951
				c9.379,3.714,19.856,3.742,29.385-0.009c12.943,9.933,22.932,14.96,29.751,14.96
				C368.542,221.288,383.257,206.562,383.257,188.469z"/>
		</g>
	</g>
	<g>
	</g>
	<g>
	</g>
	<g>
	</g>
	<g>
	</g>
	<g>
	</g>
	<g>
	</g>
	<g>
	</g>
	<g>
	</g>
	<g>
	</g>
	<g>
	</g>
	<g>
	</g>
	<g>
	</g>
	<g>
	</g>
	<g>
	</g>
	<g>
	</g>
</g>
<g>
</g>
<g>
</g>
<g>
</g>
<g>
</g>
<g>
</g>
<g>
</g>
<g>
</g>
<g>
</g>
<g>
</g>
<g>
</g>
<g>
</g>
<g>
</g>
<g>
</g>
<g>
</g>
<g>
</g>
</svg>
