<svg height="512pt" viewBox="0 0 512 512" width="512pt" xmlns="http://www.w3.org/2000/svg" fill="#E07A5F"><path d="m467 0h-422c-24.8125 0-45 20.1875-45 45v422c0 24.8125 20.1875 45 45 45h422c24.8125 0 45-20.1875 45-45v-422c0-24.8125-20.1875-45-45-45zm15 467c0 8.269531-6.730469 15-15 15h-422c-8.269531 0-15-6.730469-15-15v-422c0-8.269531 6.730469-15 15-15h422c8.269531 0 15 6.730469 15 15zm0 0"/><path d="m429 119.652344c-50.289062-37.714844-110.113281-57.652344-173-57.652344s-122.710938 19.9375-173 57.652344c-3.183594 2.390625-5.289062 5.945312-5.851562 9.886718-.558594 3.941407.46875 7.945313 2.859374 11.128907l79.183594 105.34375c2.949219 3.921875 7.449219 5.988281 12.003906 5.988281 3.128907 0 6.289063-.976562 8.988282-3 22.039062-16.527344 48.253906-25.265625 75.816406-25.265625 27.558594 0 53.777344 8.738281 75.816406 25.265625 6.621094 4.96875 16.015625 3.628906 20.988282-2.988281l79.183593-105.34375c2.394531-3.183594 3.421875-7.1875 2.859375-11.128907-.558594-3.9375-2.664062-7.496093-5.847656-9.886718zm-91.59375 96.917968c-20.234375-12.382812-42.78125-19.882812-66.40625-22.117187v-45.71875c0-8.285156-6.714844-15-15-15s-15 6.714844-15 15v45.71875c-23.625 2.234375-46.171875 9.734375-66.40625 22.117187l-61.324219-81.585937c42.378907-28.167969 91.417969-42.984375 142.730469-42.984375s100.351562 14.816406 142.730469 42.984375zm0 0"/></svg>